<svg width="197" height="160" viewBox="0 0 197 160" fill="none" xmlns="http://www.w3.org/2000/svg">
<path d="M62.4082 8.30322H194.712V49.7101L168.172 78.0194H62.4082V8.30322Z" stroke="#3DDEED" stroke-opacity="0.8"/>
<path d="M64.5215 10.9043H192.274V48.409L166.71 75.5809H64.5215V10.9043Z" stroke="#3DDEED" stroke-opacity="0.8"/>
<path d="M138.477 5.52734V7.96583H195.05V16.2567L197 13.9808V5.52734H138.477Z" fill="#3DDEED" fill-opacity="0.8"/>
<path d="M77.5141 5.05185H77.7504L77.9004 4.86921L81.4894 0.5H87.5809V6.32777H63.099L64.1016 5.05185H77.5141Z" stroke="#3DDEED" stroke-opacity="0.8"/>
<path d="M59.957 65.0264L62.0704 62.9131V78.3568H74.588L72.6372 80.3076H59.957V65.0264Z" fill="#3DDEED" fill-opacity="0.8"/>
<path d="M54.2676 68.4401V36.2521L60.7702 32.0112V32.0254V62.1001L58.3317 64.376V71.5289L54.2676 68.4401Z" fill="#3DDEED" fill-opacity="0.8"/>
<path d="M54 64V106.239H82.7009L83 138" stroke="#3DDEED" stroke-opacity="0.8"/>
<path d="M17.4707 77.5L23.1245 88L17.4707 98.5L6.2218 98.5L0.567953 88L6.2218 77.5L17.4707 77.5Z" stroke="#3DDEED" stroke-opacity="0.8"/>
<path d="M20.3079 88L16.0771 95.1176L7.61555 95.1176L3.38478 88L7.61555 80.8823L16.0771 80.8823L20.3079 88Z" fill="#3DDEED" fill-opacity="0.8"/>
<path d="M88.4706 138.5L94.1244 149L88.4706 159.5L77.2217 159.5L71.5679 149L77.2217 138.5L88.4706 138.5Z" stroke="#3DDEED" stroke-opacity="0.8"/>
<path d="M91.3078 149L87.077 156.118L78.6155 156.118L74.3847 149L78.6155 141.882L87.077 141.882L91.3078 149Z" fill="#3DDEED" fill-opacity="0.8"/>
<path d="M54.4299 81.283H43.0503L36.7102 88.4359H23.0547" stroke="#3DDEED" stroke-opacity="0.8"/>
<path d="M168.388 90.8743V79.6572H105.638L109.539 84.6968H152.457L156.358 90.8743H168.388Z" fill="#3DDEED" fill-opacity="0.8" stroke="#3DDEED" stroke-opacity="0.8"/>
</svg>
